<svg width="136" height="43" viewBox="0 0 136 43" fill="none" xmlns="http://www.w3.org/2000/svg">
<circle cx="20.5" cy="20.5" r="20.5" fill="#F6F6F6"/>
<path d="M28.2666 21.2C30.4444 22.9111 36.0133 25.3067 40.8666 21.2" stroke="#FF481F" stroke-width="4" stroke-linecap="round"/>
<path d="M41.0019 11H28.5981C22.7449 11 18 15.7449 18 21.5981V24.7027C18 28.8413 21.355 32.1963 25.4935 32.1963V39L36.2 32.1963H41.0019C46.8551 32.1963 51.6 27.4513 51.6 21.5981C51.6 15.7449 46.855 11 41.0019 11Z" stroke="#FF481F" stroke-width="4"/>
<path d="M69.4964 35H64.6004L69.2244 13.376L74.2564 12.696L72.5904 20.55H72.8624C74.1544 20.55 75.2764 19.9267 76.2284 18.68C77.2031 17.4333 77.6904 16.0847 77.6904 14.634C77.6904 13.5233 77.3617 12.6507 76.7044 12.016C76.0471 11.3813 75.1291 11.064 73.9504 11.064C71.1397 11.064 68.9071 11.812 67.2524 13.308C65.5977 14.7813 64.7704 16.7873 64.7704 19.326C64.7704 19.7567 64.7931 20.1307 64.8384 20.448C64.9064 20.7653 65.0084 21.0713 65.1444 21.366C65.1897 21.4567 65.2124 21.5247 65.2124 21.57C65.2351 21.5927 65.2464 21.6153 65.2464 21.638C63.9771 21.638 63.0477 21.3773 62.4584 20.856C61.8917 20.312 61.6084 19.4733 61.6084 18.34C61.6084 17.2067 61.9824 16.0733 62.7304 14.94C63.5011 13.8067 64.5664 12.7867 65.9264 11.88C67.0824 11.132 68.3177 10.554 69.6324 10.146C70.9697 9.71533 72.2731 9.5 73.5424 9.5C75.9224 9.5 77.8037 9.99867 79.1864 10.996C80.5691 11.9933 81.2604 13.308 81.2604 14.94C81.2604 16.028 80.9204 17.1047 80.2404 18.17C79.5831 19.2353 78.6991 20.0967 77.5884 20.754C78.3817 20.9807 78.9711 21.3773 79.3564 21.944C79.7417 22.488 79.9344 23.2247 79.9344 24.154C79.9344 24.6753 79.8777 25.276 79.7644 25.956C79.6511 26.6133 79.4017 27.622 79.0164 28.982C78.6991 30.138 78.4951 30.9653 78.4044 31.464C78.3137 31.9627 78.2684 32.3933 78.2684 32.756C78.2684 33.2773 78.3817 33.742 78.6084 34.15C78.8577 34.558 79.1864 34.8413 79.5944 35C78.9371 35.1813 78.3137 35.3173 77.7244 35.408C77.1577 35.5213 76.6591 35.578 76.2284 35.578C75.3444 35.578 74.6757 35.3853 74.2224 35C73.7917 34.6373 73.5764 34.0707 73.5764 33.3C73.5764 32.9147 73.6331 32.45 73.7464 31.906C73.8597 31.3393 74.0864 30.41 74.4264 29.118C74.8117 27.7127 75.0611 26.6927 75.1744 26.058C75.3104 25.4007 75.3784 24.834 75.3784 24.358C75.3784 23.5873 75.2084 23.0093 74.8684 22.624C74.5284 22.2387 74.0184 22.046 73.3384 22.046C73.2477 22.046 73.1457 22.0573 73.0324 22.08C72.9417 22.08 72.6697 22.114 72.2164 22.182L69.4964 35Z" fill="black"/>
<path d="M94.3023 20.958C94.3023 22.8393 93.5317 24.4827 91.9903 25.888C90.449 27.2707 88.613 28.0187 86.4823 28.132C86.4597 28.5173 86.437 28.812 86.4143 29.016C86.4143 29.1973 86.4143 29.356 86.4143 29.492C86.4143 30.5347 86.5843 31.2713 86.9243 31.702C87.287 32.1327 87.933 32.348 88.8623 32.348C89.9277 32.348 90.9023 32.11 91.7863 31.634C92.693 31.1353 93.7243 30.2287 94.8803 28.914H96.0363C94.7217 31.0447 93.2937 32.6313 91.7523 33.674C90.211 34.694 88.5223 35.204 86.6863 35.204C84.941 35.204 83.615 34.7507 82.7083 33.844C81.8243 32.9373 81.3823 31.5887 81.3823 29.798C81.3823 28.506 81.5863 27.1347 81.9943 25.684C82.4023 24.2333 82.9463 22.9413 83.6263 21.808C84.465 20.448 85.4623 19.428 86.6183 18.748C87.797 18.0453 89.1117 17.694 90.5623 17.694C91.809 17.694 92.7383 17.966 93.3503 18.51C93.985 19.0313 94.3023 19.8473 94.3023 20.958ZM90.8343 19.496C90.0637 19.496 89.2817 20.1873 88.4883 21.57C87.7177 22.93 87.1397 24.5733 86.7543 26.5C88.069 26.4093 89.2137 25.8087 90.1883 24.698C91.1857 23.5647 91.6843 22.2953 91.6843 20.89C91.6843 20.414 91.6163 20.0627 91.4803 19.836C91.3443 19.6093 91.129 19.496 90.8343 19.496Z" fill="black"/>
<path d="M96.0964 18H97.2184L98.2383 13.308L103.27 12.628L102.114 18H104.154L103.882 19.36H101.842L99.6664 29.56C99.621 29.764 99.587 29.9567 99.5644 30.138C99.5417 30.2967 99.5304 30.4667 99.5304 30.648C99.5304 31.1013 99.6324 31.43 99.8364 31.634C100.063 31.8153 100.426 31.906 100.924 31.906C101.559 31.906 102.16 31.634 102.726 31.09C103.293 30.5233 103.712 29.798 103.984 28.914H105.412C104.687 30.9767 103.712 32.5407 102.488 33.606C101.264 34.6713 99.859 35.204 98.2724 35.204C97.139 35.204 96.2437 34.8527 95.5864 34.15C94.9517 33.4247 94.6343 32.416 94.6343 31.124C94.6343 30.8293 94.657 30.5007 94.7024 30.138C94.7477 29.7527 94.8157 29.3447 94.9064 28.914L96.9464 19.36H95.8244L96.0964 18Z" fill="black"/>
<path d="M107.575 35H102.679L106.283 18H111.179L110.737 20.108C111.734 19.2693 112.516 18.714 113.083 18.442C113.672 18.1473 114.261 18 114.851 18C115.553 18 116.12 18.2493 116.551 18.748C116.981 19.224 117.197 19.8247 117.197 20.55C117.197 21.2527 116.97 21.842 116.517 22.318C116.063 22.794 115.474 23.032 114.749 23.032C114.363 23.032 114.057 22.9413 113.831 22.76C113.627 22.5787 113.479 22.2047 113.389 21.638C113.321 21.2753 113.241 21.0487 113.151 20.958C113.06 20.8447 112.935 20.788 112.777 20.788C112.391 20.788 112.029 20.8673 111.689 21.026C111.349 21.1847 110.884 21.536 110.295 22.08L107.575 35Z" fill="black"/>
<path d="M116.178 29.764C116.178 28.472 116.382 27.1007 116.79 25.65C117.221 24.1993 117.799 22.9073 118.524 21.774C119.363 20.4367 120.372 19.428 121.55 18.748C122.729 18.0453 124.044 17.694 125.494 17.694C126.945 17.694 128.033 18.1473 128.758 19.054C129.484 19.9607 129.846 21.3207 129.846 23.134C129.892 23.1567 129.937 23.1793 129.982 23.202C130.05 23.202 130.13 23.202 130.22 23.202C130.923 23.202 131.762 23.0093 132.736 22.624C133.711 22.2387 134.618 21.7513 135.456 21.162L135.762 22.08C135.128 22.76 134.278 23.3493 133.212 23.848C132.17 24.3467 131.014 24.698 129.744 24.902C129.472 27.962 128.588 30.4327 127.092 32.314C125.596 34.1953 123.772 35.136 121.618 35.136C119.85 35.136 118.502 34.6827 117.572 33.776C116.643 32.8693 116.178 31.532 116.178 29.764ZM125.766 19.768C124.678 19.768 123.647 20.8673 122.672 23.066C121.72 25.2647 121.244 27.35 121.244 29.322C121.244 30.3873 121.358 31.1127 121.584 31.498C121.834 31.8833 122.298 32.076 122.978 32.076C123.817 32.076 124.61 31.396 125.358 30.036C126.129 28.676 126.65 26.9987 126.922 25.004C126.605 24.936 126.367 24.7887 126.208 24.562C126.072 24.3127 126.004 23.984 126.004 23.576C126.004 23.1453 126.095 22.7713 126.276 22.454C126.458 22.1367 126.718 21.8987 127.058 21.74C127.013 21.0147 126.888 20.5047 126.684 20.21C126.503 19.9153 126.197 19.768 125.766 19.768Z" fill="black"/>
<path d="M69.4964 35H64.6004L69.2244 13.376L74.2564 12.696L72.5904 20.55H72.8624C74.1544 20.55 75.2764 19.9267 76.2284 18.68C77.2031 17.4333 77.6904 16.0847 77.6904 14.634C77.6904 13.5233 77.3617 12.6507 76.7044 12.016C76.0471 11.3813 75.1291 11.064 73.9504 11.064C71.1397 11.064 68.9071 11.812 67.2524 13.308C65.5977 14.7813 64.7704 16.7873 64.7704 19.326C64.7704 19.7567 64.7931 20.1307 64.8384 20.448C64.9064 20.7653 65.0084 21.0713 65.1444 21.366C65.1897 21.4567 65.2124 21.5247 65.2124 21.57C65.2351 21.5927 65.2464 21.6153 65.2464 21.638C63.9771 21.638 63.0477 21.3773 62.4584 20.856C61.8917 20.312 61.6084 19.4733 61.6084 18.34C61.6084 17.2067 61.9824 16.0733 62.7304 14.94C63.5011 13.8067 64.5664 12.7867 65.9264 11.88C67.0824 11.132 68.3177 10.554 69.6324 10.146C70.9697 9.71533 72.2731 9.5 73.5424 9.5C75.9224 9.5 77.8037 9.99867 79.1864 10.996C80.5691 11.9933 81.2604 13.308 81.2604 14.94C81.2604 16.028 80.9204 17.1047 80.2404 18.17C79.5831 19.2353 78.6991 20.0967 77.5884 20.754C78.3817 20.9807 78.9711 21.3773 79.3564 21.944C79.7417 22.488 79.9344 23.2247 79.9344 24.154C79.9344 24.6753 79.8777 25.276 79.7644 25.956C79.6511 26.6133 79.4017 27.622 79.0164 28.982C78.6991 30.138 78.4951 30.9653 78.4044 31.464C78.3137 31.9627 78.2684 32.3933 78.2684 32.756C78.2684 33.2773 78.3817 33.742 78.6084 34.15C78.8577 34.558 79.1864 34.8413 79.5944 35C78.9371 35.1813 78.3137 35.3173 77.7244 35.408C77.1577 35.5213 76.6591 35.578 76.2284 35.578C75.3444 35.578 74.6757 35.3853 74.2224 35C73.7917 34.6373 73.5764 34.0707 73.5764 33.3C73.5764 32.9147 73.6331 32.45 73.7464 31.906C73.8597 31.3393 74.0864 30.41 74.4264 29.118C74.8117 27.7127 75.0611 26.6927 75.1744 26.058C75.3104 25.4007 75.3784 24.834 75.3784 24.358C75.3784 23.5873 75.2084 23.0093 74.8684 22.624C74.5284 22.2387 74.0184 22.046 73.3384 22.046C73.2477 22.046 73.1457 22.0573 73.0324 22.08C72.9417 22.08 72.6697 22.114 72.2164 22.182L69.4964 35Z" fill="black"/>
<path d="M94.3023 20.958C94.3023 22.8393 93.5317 24.4827 91.9903 25.888C90.449 27.2707 88.613 28.0187 86.4823 28.132C86.4597 28.5173 86.437 28.812 86.4143 29.016C86.4143 29.1973 86.4143 29.356 86.4143 29.492C86.4143 30.5347 86.5843 31.2713 86.9243 31.702C87.287 32.1327 87.933 32.348 88.8623 32.348C89.9277 32.348 90.9023 32.11 91.7863 31.634C92.693 31.1353 93.7243 30.2287 94.8803 28.914H96.0363C94.7217 31.0447 93.2937 32.6313 91.7523 33.674C90.211 34.694 88.5223 35.204 86.6863 35.204C84.941 35.204 83.615 34.7507 82.7083 33.844C81.8243 32.9373 81.3823 31.5887 81.3823 29.798C81.3823 28.506 81.5863 27.1347 81.9943 25.684C82.4023 24.2333 82.9463 22.9413 83.6263 21.808C84.465 20.448 85.4623 19.428 86.6183 18.748C87.797 18.0453 89.1117 17.694 90.5623 17.694C91.809 17.694 92.7383 17.966 93.3503 18.51C93.985 19.0313 94.3023 19.8473 94.3023 20.958ZM90.8343 19.496C90.0637 19.496 89.2817 20.1873 88.4883 21.57C87.7177 22.93 87.1397 24.5733 86.7543 26.5C88.069 26.4093 89.2137 25.8087 90.1883 24.698C91.1857 23.5647 91.6843 22.2953 91.6843 20.89C91.6843 20.414 91.6163 20.0627 91.4803 19.836C91.3443 19.6093 91.129 19.496 90.8343 19.496Z" fill="black"/>
<path d="M96.0964 18H97.2184L98.2383 13.308L103.27 12.628L102.114 18H104.154L103.882 19.36H101.842L99.6664 29.56C99.621 29.764 99.587 29.9567 99.5644 30.138C99.5417 30.2967 99.5304 30.4667 99.5304 30.648C99.5304 31.1013 99.6324 31.43 99.8364 31.634C100.063 31.8153 100.426 31.906 100.924 31.906C101.559 31.906 102.16 31.634 102.726 31.09C103.293 30.5233 103.712 29.798 103.984 28.914H105.412C104.687 30.9767 103.712 32.5407 102.488 33.606C101.264 34.6713 99.859 35.204 98.2724 35.204C97.139 35.204 96.2437 34.8527 95.5864 34.15C94.9517 33.4247 94.6343 32.416 94.6343 31.124C94.6343 30.8293 94.657 30.5007 94.7024 30.138C94.7477 29.7527 94.8157 29.3447 94.9064 28.914L96.9464 19.36H95.8244L96.0964 18Z" fill="black"/>
<path d="M107.575 35H102.679L106.283 18H111.179L110.737 20.108C111.734 19.2693 112.516 18.714 113.083 18.442C113.672 18.1473 114.261 18 114.851 18C115.553 18 116.12 18.2493 116.551 18.748C116.981 19.224 117.197 19.8247 117.197 20.55C117.197 21.2527 116.97 21.842 116.517 22.318C116.063 22.794 115.474 23.032 114.749 23.032C114.363 23.032 114.057 22.9413 113.831 22.76C113.627 22.5787 113.479 22.2047 113.389 21.638C113.321 21.2753 113.241 21.0487 113.151 20.958C113.06 20.8447 112.935 20.788 112.777 20.788C112.391 20.788 112.029 20.8673 111.689 21.026C111.349 21.1847 110.884 21.536 110.295 22.08L107.575 35Z" fill="black"/>
<path d="M116.178 29.764C116.178 28.472 116.382 27.1007 116.79 25.65C117.221 24.1993 117.799 22.9073 118.524 21.774C119.363 20.4367 120.372 19.428 121.55 18.748C122.729 18.0453 124.044 17.694 125.494 17.694C126.945 17.694 128.033 18.1473 128.758 19.054C129.484 19.9607 129.846 21.3207 129.846 23.134C129.892 23.1567 129.937 23.1793 129.982 23.202C130.05 23.202 130.13 23.202 130.22 23.202C130.923 23.202 131.762 23.0093 132.736 22.624C133.711 22.2387 134.618 21.7513 135.456 21.162L135.762 22.08C135.128 22.76 134.278 23.3493 133.212 23.848C132.17 24.3467 131.014 24.698 129.744 24.902C129.472 27.962 128.588 30.4327 127.092 32.314C125.596 34.1953 123.772 35.136 121.618 35.136C119.85 35.136 118.502 34.6827 117.572 33.776C116.643 32.8693 116.178 31.532 116.178 29.764ZM125.766 19.768C124.678 19.768 123.647 20.8673 122.672 23.066C121.72 25.2647 121.244 27.35 121.244 29.322C121.244 30.3873 121.358 31.1127 121.584 31.498C121.834 31.8833 122.298 32.076 122.978 32.076C123.817 32.076 124.61 31.396 125.358 30.036C126.129 28.676 126.65 26.9987 126.922 25.004C126.605 24.936 126.367 24.7887 126.208 24.562C126.072 24.3127 126.004 23.984 126.004 23.576C126.004 23.1453 126.095 22.7713 126.276 22.454C126.458 22.1367 126.718 21.8987 127.058 21.74C127.013 21.0147 126.888 20.5047 126.684 20.21C126.503 19.9153 126.197 19.768 125.766 19.768Z" fill="black"/>
</svg>
